<?xml version="1.0" encoding="utf-8"?>
<!-- created with bpmn-js / http://bpmn.io -->
<!DOCTYPE svg PUBLIC "-//W3C//DTD SVG 1.1//EN" "http://www.w3.org/Graphics/SVG/1.1/DTD/svg11.dtd">
<svg xmlns="http://www.w3.org/2000/svg" xmlns:xlink="http://www.w3.org/1999/xlink" width="884" height="370.2170104980469" viewBox="286 97.7829818725586 884 370.2170104980469" version="1.1"><defs><marker id="sequenceflow-end-white-black-764uhgdfvxoi2xdyh349nsuv4" viewBox="0 0 20 20" refX="11" refY="10" markerWidth="10" markerHeight="10" orient="auto"><path d="M 1 5 L 11 10 L 1 15 Z" style="fill: black; stroke-width: 1px; stroke-linecap: round; stroke-dasharray: 10000px, 1px; stroke: black;"/></marker></defs><g class="djs-group"><g class="djs-element djs-connection" data-element-id="Flow_0vdrh20" style="display: block;"><g class="djs-visual"><path d="m  631,410L652,410 " style="fill: none; stroke-width: 2px; stroke: black; stroke-linejoin: round; marker-end: url('#sequenceflow-end-white-black-764uhgdfvxoi2xdyh349nsuv4');"/></g><polyline points="631,410 652,410 " style="fill: none; stroke-opacity: 0; stroke: white; stroke-width: 15px;" class="djs-hit djs-hit-stroke"/><rect x="625" y="404" width="33" height="12" style="fill: none;" class="djs-outline"/></g></g><g class="djs-group"><g class="djs-element djs-connection" data-element-id="Flow_0u1s2no" style="display: block;"><g class="djs-visual"><path d="m  490,335L490,410 L529,410 " style="fill: none; stroke-width: 2px; stroke: black; stroke-linejoin: round; marker-end: url('#sequenceflow-end-white-black-764uhgdfvxoi2xdyh349nsuv4');"/></g><polyline points="490,335 490,410 529,410 " style="fill: none; stroke-opacity: 0; stroke: white; stroke-width: 15px;" class="djs-hit djs-hit-stroke"/><rect x="484" y="329" width="51" height="87" style="fill: none;" class="djs-outline"/></g></g><g class="djs-group"><g class="djs-element djs-connection" data-element-id="Flow_0ofqhac" style="display: block;"><g class="djs-visual"><path d="m  515,310L529,310 " style="fill: none; stroke-width: 2px; stroke: black; stroke-linejoin: round; marker-end: url('#sequenceflow-end-white-black-764uhgdfvxoi2xdyh349nsuv4');"/></g><polyline points="515,310 529,310 " style="fill: none; stroke-opacity: 0; stroke: white; stroke-width: 15px;" class="djs-hit djs-hit-stroke"/><rect x="509" y="304" width="26" height="12" style="fill: none;" class="djs-outline"/></g></g><g class="djs-group"><g class="djs-element djs-connection" data-element-id="Flow_1ulk4f4" style="display: block;"><g class="djs-visual"><path d="m  1081,410L1102,410 " style="fill: none; stroke-width: 2px; stroke: black; stroke-linejoin: round; marker-end: url('#sequenceflow-end-white-black-764uhgdfvxoi2xdyh349nsuv4');"/></g><polyline points="1081,410 1102,410 " style="fill: none; stroke-opacity: 0; stroke: white; stroke-width: 15px;" class="djs-hit djs-hit-stroke"/><rect x="1075" y="404" width="33" height="12" style="fill: none;" class="djs-outline"/></g></g><g class="djs-group"><g class="djs-element djs-connection" data-element-id="Flow_1iis7ma" style="display: block;"><g class="djs-visual"><path d="m  1081,210L1102,210 " style="fill: none; stroke-width: 2px; stroke: black; stroke-linejoin: round; marker-end: url('#sequenceflow-end-white-black-764uhgdfvxoi2xdyh349nsuv4');"/></g><polyline points="1081,210 1102,210 " style="fill: none; stroke-opacity: 0; stroke: white; stroke-width: 15px;" class="djs-hit djs-hit-stroke"/><rect x="1075" y="204" width="33" height="12" style="fill: none;" class="djs-outline"/></g></g><g class="djs-group"><g class="djs-element djs-connection" data-element-id="Flow_1raekux" style="display: block;"><g class="djs-visual"><path d="m  861,210L979,210 " style="fill: none; stroke-width: 2px; stroke: black; stroke-linejoin: round; marker-end: url('#sequenceflow-end-white-black-764uhgdfvxoi2xdyh349nsuv4');"/></g><polyline points="861,210 979,210 " style="fill: none; stroke-opacity: 0; stroke: white; stroke-width: 15px;" class="djs-hit djs-hit-stroke"/><rect x="855" y="204" width="130" height="12" style="fill: none;" class="djs-outline"/></g></g><g class="djs-group"><g class="djs-element djs-connection" data-element-id="Flow_1y5kjvm" style="display: block;"><g class="djs-visual"><path d="m  720,335L720,410 L979,410 " style="fill: none; stroke-width: 2px; stroke: black; stroke-linejoin: round; marker-end: url('#sequenceflow-end-white-black-764uhgdfvxoi2xdyh349nsuv4');"/></g><polyline points="720,335 720,410 979,410 " style="fill: none; stroke-opacity: 0; stroke: white; stroke-width: 15px;" class="djs-hit djs-hit-stroke"/><rect x="714" y="329" width="271" height="87" style="fill: none;" class="djs-outline"/></g></g><g class="djs-group"><g class="djs-element djs-connection" data-element-id="Flow_1suityk" style="display: block;"><g class="djs-visual"><path d="m  720,285L720,210 L759,210 " style="fill: none; stroke-width: 2px; stroke: black; stroke-linejoin: round; marker-end: url('#sequenceflow-end-white-black-764uhgdfvxoi2xdyh349nsuv4');"/></g><polyline points="720,285 720,210 759,210 " style="fill: none; stroke-opacity: 0; stroke: white; stroke-width: 15px;" class="djs-hit djs-hit-stroke"/><rect x="714" y="204" width="51" height="87" style="fill: none;" class="djs-outline"/></g></g><g class="djs-group"><g class="djs-element djs-connection" data-element-id="Flow_0t9qdyf" style="display: block;"><g class="djs-visual"><path d="m  631,310L695,310 " style="fill: none; stroke-width: 2px; stroke: black; stroke-linejoin: round; marker-end: url('#sequenceflow-end-white-black-764uhgdfvxoi2xdyh349nsuv4');"/></g><polyline points="631,310 695,310 " style="fill: none; stroke-opacity: 0; stroke: white; stroke-width: 15px;" class="djs-hit djs-hit-stroke"/><rect x="625" y="304" width="76" height="12" style="fill: none;" class="djs-outline"/></g></g><g class="djs-group"><g class="djs-element djs-connection" data-element-id="Flow_0c0ftm3" style="display: block;"><g class="djs-visual"><path d="m  451,310L465,310 " style="fill: none; stroke-width: 2px; stroke: black; stroke-linejoin: round; marker-end: url('#sequenceflow-end-white-black-764uhgdfvxoi2xdyh349nsuv4');"/></g><polyline points="451,310 465,310 " style="fill: none; stroke-opacity: 0; stroke: white; stroke-width: 15px;" class="djs-hit djs-hit-stroke"/><rect x="445" y="304" width="26" height="12" style="fill: none;" class="djs-outline"/></g></g><g class="djs-group"><g class="djs-element djs-connection" data-element-id="Flow_0cukmpw" style="display: block;"><g class="djs-visual"><path d="m  328,310L349,310 " style="fill: none; stroke-width: 2px; stroke: black; stroke-linejoin: round; marker-end: url('#sequenceflow-end-white-black-764uhgdfvxoi2xdyh349nsuv4');"/></g><polyline points="328,310 349,310 " style="fill: none; stroke-opacity: 0; stroke: white; stroke-width: 15px;" class="djs-hit djs-hit-stroke"/><rect x="322" y="304" width="33" height="12" style="fill: none;" class="djs-outline"/></g></g><g class="djs-group"><g class="djs-element djs-connection" data-element-id="Flow_1jrrxnn" style="display: block;"><g class="djs-visual"><path d="m  861,258L861,310 L979,310 " style="fill: none; stroke-width: 2px; stroke: black; stroke-linejoin: round; marker-end: url('#sequenceflow-end-white-black-764uhgdfvxoi2xdyh349nsuv4');"/></g><polyline points="861,258 861,310 979,310 " style="fill: none; stroke-opacity: 0; stroke: white; stroke-width: 15px;" class="djs-hit djs-hit-stroke"/><rect x="855" y="252" width="130" height="64" style="fill: none;" class="djs-outline"/></g></g><g class="djs-group"><g class="djs-element djs-connection" data-element-id="Flow_1dya0ws" style="display: block;"><g class="djs-visual"><path d="m  1081,310L1102,310 " style="fill: none; stroke-width: 2px; stroke: black; stroke-linejoin: round; marker-end: url('#sequenceflow-end-white-black-764uhgdfvxoi2xdyh349nsuv4');"/></g><polyline points="1081,310 1102,310 " style="fill: none; stroke-opacity: 0; stroke: white; stroke-width: 15px;" class="djs-hit djs-hit-stroke"/><rect x="1075" y="304" width="33" height="12" style="fill: none;" class="djs-outline"/></g></g><g class="djs-group"><g class="djs-element djs-shape" data-element-id="Event_0cdl3vr" transform="matrix(1, 0, 0, 1, 292, 292)" style="display: block;"><g class="djs-visual"><circle cx="18" cy="18" r="18" style="stroke: black; stroke-width: 2px; fill: white; fill-opacity: 0.95;"/></g><rect style="fill: none; stroke-opacity: 0; stroke: white; stroke-width: 15px;" class="djs-hit djs-hit-all" x="0" y="0" width="36" height="36"/><rect x="-6" y="-6" width="48" height="48" style="fill: none;" class="djs-outline"/></g></g><g class="djs-group"><g class="djs-element djs-shape" data-element-id="ChoreographyTask_1pemiqc" transform="matrix(1, 0, 0, 1, 350, 270)" style="display: block;"><g class="djs-visual"><path d="M10,0a10,10,0,0,0,-10,10l0,60a10,10,0,0,0,10,10l80,0a10,10,0,0,0,10,-10l0,-60a10,10,0,0,0,-10,-10z" style="fill: white; fill-opacity: 0.95; stroke: black; stroke-width: 2px;"/><text style="font-family: Arial, sans-serif; font-size: 12px; font-weight: normal; fill: black;" lineHeight="1.2" class="djs-label" transform="translate(0, 20)"><tspan x="28.33333396911621" y="16.4">request </tspan><tspan x="6" y="30.799999999999997">appointment (ra)</tspan></text></g><rect style="fill: none; stroke-opacity: 0; stroke: white; stroke-width: 15px;" class="djs-hit djs-hit-all" x="0" y="0" width="100" height="80"/><rect x="-6" y="-6" width="112" height="92" style="fill: none;" class="djs-outline"/></g><g class="djs-children"><g class="djs-group"><g class="djs-element djs-shape" data-element-id="Participant_0q7unk8_ChoreographyTask_1pemiqc" transform="matrix(1, 0, 0, 1, 350, 270)" style="display: block;"><g class="djs-visual"><path d="M0,20l100,0" style="stroke: black; stroke-width: 2px;"/><text style="font-family: Arial, sans-serif; font-size: 12px; font-weight: normal; fill: black;" lineHeight="1.2" class="djs-label" transform="translate(0, 0)"><tspan x="31.33333396911621" y="13.6">Patient</tspan></text></g><rect style="fill: none; stroke-opacity: 0; stroke: white; stroke-width: 15px;" class="djs-hit djs-hit-all" x="0" y="0" width="100" height="20"/><rect x="-6" y="-6" width="112" height="32" style="fill: none;" class="djs-outline"/></g><g class="djs-children"><g class="djs-group"><g class="djs-element djs-shape" data-element-id="Message_1qvlx8u" transform="matrix(1, 0, 0, 1, 382.5, 225)" style="display: none;"><g class="djs-visual"><path d="M17.5,25l0,20" style="stroke: black; stroke-width: 2px; stroke-dasharray: 0px, 4px; stroke-linecap: round;"/><path d="M0,0l0,25l35,0l0,-25zM0,0l17.5,15l17.5,-15" style="stroke: black; stroke-width: 2px; fill: white; fill-opacity: 0.95;"/></g><rect style="fill: none; stroke-opacity: 0; stroke: white; stroke-width: 15px;" class="djs-hit djs-hit-all" x="0" y="0" width="35" height="25"/><rect x="-6" y="-6" width="47" height="37" style="fill: none;" class="djs-outline"/></g></g></g></g><g class="djs-group"><g class="djs-element djs-shape" data-element-id="Participant_1tdksxe_ChoreographyTask_1pemiqc" transform="matrix(1, 0, 0, 1, 350, 330)" style="display: block;"><g class="djs-visual"><path d="M100,0l-100,0l0,10a10,10,0,0,0,10,10l80,0a10,10,0,0,0,10,-10z" style="fill: black; fill-opacity: 0.1725;"/><path d="M0,0l100,0" style="stroke: black; stroke-width: 2px;"/><text style="font-family: Arial, sans-serif; font-size: 12px; font-weight: normal; fill: black;" lineHeight="1.2" class="djs-label" transform="translate(0, 0)"><tspan x="23.33333396911621" y="13.6">Radiology</tspan></text></g><rect style="fill: none; stroke-opacity: 0; stroke: white; stroke-width: 15px;" class="djs-hit djs-hit-all" x="0" y="0" width="100" height="20"/><rect x="-6" y="-6" width="112" height="32" style="fill: none;" class="djs-outline"/></g></g></g></g><g class="djs-group"><g class="djs-element djs-shape" data-element-id="ChoreographyTask_1w6frih" transform="matrix(1, 0, 0, 1, 530, 270)" style="display: block;"><g class="djs-visual"><path d="M10,0a10,10,0,0,0,-10,10l0,60a10,10,0,0,0,10,10l80,0a10,10,0,0,0,10,-10l0,-60a10,10,0,0,0,-10,-10z" style="fill: white; fill-opacity: 0.95; stroke: black; stroke-width: 2px;"/><text style="font-family: Arial, sans-serif; font-size: 12px; font-weight: normal; fill: black;" lineHeight="1.2" class="djs-label" transform="translate(0, 20)"><tspan x="36.44166660308838" y="16.4">offer </tspan><tspan x="4.666667938232422" y="30.799999999999997">appointment (oa)</tspan></text></g><rect style="fill: none; stroke-opacity: 0; stroke: white; stroke-width: 15px;" class="djs-hit djs-hit-all" x="0" y="0" width="100" height="80"/><rect x="-6" y="-6" width="112" height="92" style="fill: none;" class="djs-outline"/></g><g class="djs-children"><g class="djs-group"><g class="djs-element djs-shape" data-element-id="Participant_1tdksxe_ChoreographyTask_1w6frih" transform="matrix(1, 0, 0, 1, 530, 270)" style="display: block;"><g class="djs-visual"><path d="M0,20l100,0" style="stroke: black; stroke-width: 2px;"/><text style="font-family: Arial, sans-serif; font-size: 12px; font-weight: normal; fill: black;" lineHeight="1.2" class="djs-label" transform="translate(0, 0)"><tspan x="23.33333396911621" y="13.6">Radiology</tspan></text></g><rect style="fill: none; stroke-opacity: 0; stroke: white; stroke-width: 15px;" class="djs-hit djs-hit-all" x="0" y="0" width="100" height="20"/><rect x="-6" y="-6" width="112" height="32" style="fill: none;" class="djs-outline"/></g><g class="djs-children"><g class="djs-group"><g class="djs-element djs-shape" data-element-id="Message_12z4lcd" transform="matrix(1, 0, 0, 1, 562.5, 225)" style="display: block;"><g class="djs-visual"><path d="M17.5,25l0,20" style="stroke: black; stroke-width: 2px; stroke-dasharray: 0px, 4px; stroke-linecap: round;"/><path d="M0,0l0,25l35,0l0,-25zM0,0l17.5,15l17.5,-15" style="stroke: black; stroke-width: 2px; fill: white; fill-opacity: 0.95;"/><text style="font-family: Arial, sans-serif; font-size: 12px; font-weight: normal; fill: black;" lineHeight="1.2" class="djs-label" transform="translate(-32.5, -25)"><tspan x="14.6916663646698" y="8.9">Appointment </tspan><tspan x="23" y="23.299999999999997">[available]</tspan></text></g><rect style="fill: none; stroke-opacity: 0; stroke: white; stroke-width: 15px;" class="djs-hit djs-hit-all" x="0" y="0" width="35" height="25"/><rect x="-6" y="-6" width="47" height="37" style="fill: none;" class="djs-outline"/></g></g></g></g><g class="djs-group"><g class="djs-element djs-shape" data-element-id="Participant_0q7unk8_ChoreographyTask_1w6frih" transform="matrix(1, 0, 0, 1, 530, 330)" style="display: block;"><g class="djs-visual"><path d="M100,0l-100,0l0,10a10,10,0,0,0,10,10l80,0a10,10,0,0,0,10,-10z" style="fill: black; fill-opacity: 0.1725;"/><path d="M0,0l100,0" style="stroke: black; stroke-width: 2px;"/><text style="font-family: Arial, sans-serif; font-size: 12px; font-weight: normal; fill: black;" lineHeight="1.2" class="djs-label" transform="translate(0, 0)"><tspan x="31.33333396911621" y="13.6">Patient</tspan></text></g><rect style="fill: none; stroke-opacity: 0; stroke: white; stroke-width: 15px;" class="djs-hit djs-hit-all" x="0" y="0" width="100" height="20"/><rect x="-6" y="-6" width="112" height="32" style="fill: none;" class="djs-outline"/></g></g></g></g><g class="djs-group"><g class="djs-element djs-shape" data-element-id="Gateway_0quj6dl" transform="matrix(1, 0, 0, 1, 465, 285)" style="display: block;"><g class="djs-visual"><polygon points="25,0 50,25 25,50 0,25" style="stroke: black; stroke-width: 2px; fill: white; fill-opacity: 0.95;"/><circle cx="25" cy="25" r="15" style="stroke: black; stroke-width: 1px; fill: none;"/><circle cx="25" cy="25" r="12" style="stroke: black; stroke-width: 1px; fill: none;"/><path d="m 18,22 7.363636363636364,-4.909090909090909 7.363636363636364,4.909090909090909 -2.4545454545454546,9.818181818181818 -9.818181818181818,0 z" style="fill: none; stroke-width: 2px; stroke: black;"/></g><rect style="fill: none; stroke-opacity: 0; stroke: white; stroke-width: 15px;" class="djs-hit djs-hit-all" x="0" y="0" width="50" height="50"/><rect x="-6" y="-6" width="62" height="62" style="fill: none;" class="djs-outline"/></g></g><g class="djs-group"><g class="djs-element djs-shape" data-element-id="ChoreographyTask_19oxx8n" transform="matrix(1, 0, 0, 1, 530, 370)" style="display: block;"><g class="djs-visual"><path d="M10,0a10,10,0,0,0,-10,10l0,60a10,10,0,0,0,10,10l80,0a10,10,0,0,0,10,-10l0,-60a10,10,0,0,0,-10,-10z" style="fill: white; fill-opacity: 0.95; stroke: black; stroke-width: 2px;"/><text style="font-family: Arial, sans-serif; font-size: 12px; font-weight: normal; fill: black;" lineHeight="1.2" class="djs-label" transform="translate(0, 20)"><tspan x="29.33333396911621" y="9.200000000000001">decline </tspan><tspan x="15.333332061767578" y="23.6">appointment </tspan><tspan x="17.666667938232422" y="38">request (da)</tspan></text></g><rect style="fill: none; stroke-opacity: 0; stroke: white; stroke-width: 15px;" class="djs-hit djs-hit-all" x="0" y="0" width="100" height="80"/><rect x="-6" y="-6" width="112" height="92" style="fill: none;" class="djs-outline"/></g><g class="djs-children"><g class="djs-group"><g class="djs-element djs-shape" data-element-id="Participant_1tdksxe_ChoreographyTask_19oxx8n" transform="matrix(1, 0, 0, 1, 530, 370)" style="display: block;"><g class="djs-visual"><path d="M0,20l100,0" style="stroke: black; stroke-width: 2px;"/><text style="font-family: Arial, sans-serif; font-size: 12px; font-weight: normal; fill: black;" lineHeight="1.2" class="djs-label" transform="translate(0, 0)"><tspan x="23.33333396911621" y="13.6">Radiology</tspan></text></g><rect style="fill: none; stroke-opacity: 0; stroke: white; stroke-width: 15px;" class="djs-hit djs-hit-all" x="0" y="0" width="100" height="20"/><rect x="-6" y="-6" width="112" height="32" style="fill: none;" class="djs-outline"/></g><g class="djs-children"><g class="djs-group"><g class="djs-element djs-shape" data-element-id="Message_1lu7mt7" transform="matrix(1, 0, 0, 1, 562.5, 325)" style="display: none;"><g class="djs-visual"><path d="M17.5,25l0,20" style="stroke: black; stroke-width: 2px; stroke-dasharray: 0px, 4px; stroke-linecap: round;"/><path d="M0,0l0,25l35,0l0,-25zM0,0l17.5,15l17.5,-15" style="stroke: black; stroke-width: 2px; fill: white; fill-opacity: 0.95;"/></g><rect style="fill: none; stroke-opacity: 0; stroke: white; stroke-width: 15px;" class="djs-hit djs-hit-all" x="0" y="0" width="35" height="25"/><rect x="-6" y="-6" width="47" height="37" style="fill: none;" class="djs-outline"/></g></g></g></g><g class="djs-group"><g class="djs-element djs-shape" data-element-id="Participant_0q7unk8_ChoreographyTask_19oxx8n" transform="matrix(1, 0, 0, 1, 530, 430)" style="display: block;"><g class="djs-visual"><path d="M100,0l-100,0l0,10a10,10,0,0,0,10,10l80,0a10,10,0,0,0,10,-10z" style="fill: black; fill-opacity: 0.1725;"/><path d="M0,0l100,0" style="stroke: black; stroke-width: 2px;"/><text style="font-family: Arial, sans-serif; font-size: 12px; font-weight: normal; fill: black;" lineHeight="1.2" class="djs-label" transform="translate(0, 0)"><tspan x="31.33333396911621" y="13.6">Patient</tspan></text></g><rect style="fill: none; stroke-opacity: 0; stroke: white; stroke-width: 15px;" class="djs-hit djs-hit-all" x="0" y="0" width="100" height="20"/><rect x="-6" y="-6" width="112" height="32" style="fill: none;" class="djs-outline"/></g></g></g></g><g class="djs-group"><g class="djs-element djs-shape" data-element-id="Event_00ez48x" transform="matrix(1, 0, 0, 1, 652, 392)" style="display: block;"><g class="djs-visual"><circle cx="18" cy="18" r="18" style="stroke: black; stroke-width: 4px; fill: white; fill-opacity: 0.95;"/></g><rect style="fill: none; stroke-opacity: 0; stroke: white; stroke-width: 15px;" class="djs-hit djs-hit-all" x="0" y="0" width="36" height="36"/><rect x="-6" y="-6" width="48" height="48" style="fill: none;" class="djs-outline"/></g></g><g class="djs-group"><g class="djs-element djs-shape" data-element-id="Event_00ez48x_label" transform="matrix(1, 0, 0, 1, 630, 435)" style="display: block;"><g class="djs-visual"><text style="font-family: Arial, sans-serif; font-size: 11px; font-weight: normal; fill: black;" lineHeight="1.2" class="djs-label"><tspan x="8.566665649414062" y="9.899999999999999">appointment </tspan><tspan x="0" y="23.099999999999998">request declined</tspan></text></g><rect style="fill: none; stroke-opacity: 0; stroke: white; stroke-width: 15px;" class="djs-hit djs-hit-all" x="0" y="0" width="81" height="27"/><rect x="-6" y="-6" width="93" height="39" style="fill: none;" class="djs-outline"/></g></g><g class="djs-group"><g class="djs-element djs-shape" data-element-id="ChoreographyTask_021y1o8" transform="matrix(1, 0, 0, 1, 760, 170)" style="display: block;"><g class="djs-visual"><path d="M10,0a10,10,0,0,0,-10,10l0,60a10,10,0,0,0,10,10l80,0a10,10,0,0,0,10,-10l0,-60a10,10,0,0,0,-10,-10z" style="fill: white; fill-opacity: 0.95; stroke: black; stroke-width: 2px;"/><text style="font-family: Arial, sans-serif; font-size: 12px; font-weight: normal; fill: black;" lineHeight="1.2" class="djs-label" transform="translate(0, 20)"><tspan x="32.66666603088379" y="16.4">select </tspan><tspan x="5" y="30.799999999999997">appointment (sa)</tspan></text></g><rect style="fill: none; stroke-opacity: 0; stroke: white; stroke-width: 15px;" class="djs-hit djs-hit-all" x="0" y="0" width="100" height="80"/><rect x="-6" y="-6" width="112" height="92" style="fill: none;" class="djs-outline"/></g><g class="djs-children"><g class="djs-group"><g class="djs-element djs-shape" data-element-id="Participant_0q7unk8_ChoreographyTask_021y1o8" transform="matrix(1, 0, 0, 1, 760, 170)" style="display: block;"><g class="djs-visual"><path d="M0,20l100,0" style="stroke: black; stroke-width: 2px;"/><text style="font-family: Arial, sans-serif; font-size: 12px; font-weight: normal; fill: black;" lineHeight="1.2" class="djs-label" transform="translate(0, 0)"><tspan x="31.33333396911621" y="13.6">Patient</tspan></text></g><rect x="-6" y="-6" width="112" height="32" style="fill: none;" class="djs-outline"/><rect style="fill: none; stroke-opacity: 0; stroke: white; stroke-width: 15px;" class="djs-hit djs-hit-all" x="0" y="0" width="100" height="20"/></g><g class="djs-children"><g class="djs-group"><g class="djs-element djs-shape" data-element-id="Message_1uv2hgd" transform="matrix(1, 0, 0, 1, 792.5, 125)" style="display: block;"><g class="djs-visual"><path d="M17.5,25l0,20" style="stroke: black; stroke-width: 2px; stroke-dasharray: 0px, 4px; stroke-linecap: round;"/><path d="M0,0l0,25l35,0l0,-25zM0,0l17.5,15l17.5,-15" style="stroke: black; stroke-width: 2px; fill: white; fill-opacity: 0.95;"/><text style="font-family: Arial, sans-serif; font-size: 12px; font-weight: normal; fill: black;" lineHeight="1.2" class="djs-label" transform="translate(-32.5, -25)"><tspan x="14.6916663646698" y="8.9">Appointment </tspan><tspan x="24.33333396911621" y="23.299999999999997">[selected]</tspan></text></g><rect style="fill: none; stroke-opacity: 0; stroke: white; stroke-width: 15px;" class="djs-hit djs-hit-all" x="0" y="0" width="35" height="25"/><rect x="-6" y="-6" width="47" height="37" style="fill: none;" class="djs-outline"/></g></g></g></g><g class="djs-group"><g class="djs-element djs-shape" data-element-id="Participant_1tdksxe_ChoreographyTask_021y1o8" transform="matrix(1, 0, 0, 1, 760, 230)" style="display: block;"><g class="djs-visual"><path d="M100,0l-100,0l0,10a10,10,0,0,0,10,10l80,0a10,10,0,0,0,10,-10z" style="fill: black; fill-opacity: 0.1725;"/><path d="M0,0l100,0" style="stroke: black; stroke-width: 2px;"/><text style="font-family: Arial, sans-serif; font-size: 12px; font-weight: normal; fill: black;" lineHeight="1.2" class="djs-label" transform="translate(0, 0)"><tspan x="23.33333396911621" y="13.6">Radiology</tspan></text></g><rect x="-6" y="-6" width="112" height="32" style="fill: none;" class="djs-outline"/><rect style="fill: none; stroke-opacity: 0; stroke: white; stroke-width: 15px;" class="djs-hit djs-hit-all" x="0" y="0" width="100" height="20"/></g></g></g></g><g class="djs-group"><g class="djs-element djs-shape" data-element-id="Event_0m4ultq" transform="matrix(1, 0, 0, 1, 843, 222)" style="display: block;"><g class="djs-visual"><circle cx="18" cy="18" r="18" style="stroke: black; stroke-width: 1px; fill: white; fill-opacity: 0.95;"/><circle cx="18" cy="18" r="15" style="stroke: black; stroke-width: 1px; fill: none;"/><path d="M 10.5,8.5 l 14.5,0 l 0,18 l -14.5,0 Z M 12.5,11.5 l 10.5,0 M 12.5,14.5 l 10.5,0 M 12.5,17.5 l 10.5,0 M 12.5,20.5 l 10.5,0 M 12.5,23.5 l 10.5,0 M 12.5,26.5 l 10.5,0 " style="fill: none; stroke-width: 1px; stroke: black;"/></g><rect style="fill: none; stroke-opacity: 0; stroke: white; stroke-width: 15px;" class="djs-hit djs-hit-all" x="0" y="0" width="36" height="36"/><rect x="-6" y="-6" width="48" height="48" style="fill: none;" class="djs-outline"/></g></g><g class="djs-group"><g class="djs-element djs-shape" data-element-id="Event_0sufphf" transform="matrix(1, 0, 0, 1, 1102, 192)" style="display: block;"><g class="djs-visual"><circle cx="18" cy="18" r="18" style="stroke: black; stroke-width: 4px; fill: white; fill-opacity: 0.95;"/></g><rect style="fill: none; stroke-opacity: 0; stroke: white; stroke-width: 15px;" class="djs-hit djs-hit-all" x="0" y="0" width="36" height="36"/><rect x="-6" y="-6" width="48" height="48" style="fill: none;" class="djs-outline"/></g></g><g class="djs-group"><g class="djs-element djs-shape" data-element-id="Event_0sufphf_label" transform="matrix(1, 0, 0, 1, 1090, 235)" style="display: block;"><g class="djs-visual"><text style="font-family: Arial, sans-serif; font-size: 11px; font-weight: normal; fill: black;" lineHeight="1.2" class="djs-label"><tspan x="0" y="9.899999999999999">appointment </tspan><tspan x="7.641668319702148" y="23.099999999999998">confirmed</tspan></text></g><rect style="fill: none; stroke-opacity: 0; stroke: white; stroke-width: 15px;" class="djs-hit djs-hit-all" x="0" y="0" width="64" height="27"/><rect x="-6" y="-6" width="76" height="39" style="fill: none;" class="djs-outline"/></g></g><g class="djs-group"><g class="djs-element djs-shape" data-element-id="ChoreographyTask_03is24q" transform="matrix(1, 0, 0, 1, 980, 170)" style="display: block;"><g class="djs-visual"><path d="M10,0a10,10,0,0,0,-10,10l0,60a10,10,0,0,0,10,10l80,0a10,10,0,0,0,10,-10l0,-60a10,10,0,0,0,-10,-10z" style="fill: white; fill-opacity: 0.95; stroke: black; stroke-width: 2px;"/><text style="font-family: Arial, sans-serif; font-size: 12px; font-weight: normal; fill: black;" lineHeight="1.2" class="djs-label" transform="translate(0, 20)"><tspan x="28.66666603088379" y="16.4">confirm </tspan><tspan x="5" y="30.799999999999997">appointment (ca)</tspan></text></g><rect style="fill: none; stroke-opacity: 0; stroke: white; stroke-width: 15px;" class="djs-hit djs-hit-all" x="0" y="0" width="100" height="80"/><rect x="-6" y="-6" width="112" height="92" style="fill: none;" class="djs-outline"/></g><g class="djs-children"><g class="djs-group"><g class="djs-element djs-shape" data-element-id="Participant_1tdksxe_ChoreographyTask_03is24q" transform="matrix(1, 0, 0, 1, 980, 170)" style="display: block;"><g class="djs-visual"><path d="M0,20l100,0" style="stroke: black; stroke-width: 2px;"/><text style="font-family: Arial, sans-serif; font-size: 12px; font-weight: normal; fill: black;" lineHeight="1.2" class="djs-label" transform="translate(0, 0)"><tspan x="23.33333396911621" y="13.6">Radiology</tspan></text></g><rect x="-6" y="-6" width="112" height="32" style="fill: none;" class="djs-outline"/><rect style="fill: none; stroke-opacity: 0; stroke: white; stroke-width: 15px;" class="djs-hit djs-hit-all" x="0" y="0" width="100" height="20"/></g><g class="djs-children"><g class="djs-group"><g class="djs-element djs-shape" data-element-id="Message_006u2gz" transform="matrix(1, 0, 0, 1, 1012.5, 125)" style="display: block;"><g class="djs-visual"><path d="M17.5,25l0,20" style="stroke: black; stroke-width: 2px; stroke-dasharray: 0px, 4px; stroke-linecap: round;"/><path d="M0,0l0,25l35,0l0,-25zM0,0l17.5,15l17.5,-15" style="stroke: black; stroke-width: 2px; fill: white; fill-opacity: 0.95;"/><text style="font-family: Arial, sans-serif; font-size: 12px; font-weight: normal; fill: black;" lineHeight="1.2" class="djs-label" transform="translate(-32.5, -25)"><tspan x="14.6916663646698" y="8.9">Appointment </tspan><tspan x="20.33333396911621" y="23.299999999999997">[confirmed]</tspan></text></g><rect style="fill: none; stroke-opacity: 0; stroke: white; stroke-width: 15px;" class="djs-hit djs-hit-all" x="0" y="0" width="35" height="25"/><rect x="-6" y="-6" width="47" height="37" style="fill: none;" class="djs-outline"/></g></g></g></g><g class="djs-group"><g class="djs-element djs-shape" data-element-id="Participant_0q7unk8_ChoreographyTask_03is24q" transform="matrix(1, 0, 0, 1, 980, 230)" style="display: block;"><g class="djs-visual"><path d="M100,0l-100,0l0,10a10,10,0,0,0,10,10l80,0a10,10,0,0,0,10,-10z" style="fill: black; fill-opacity: 0.1725;"/><path d="M0,0l100,0" style="stroke: black; stroke-width: 2px;"/><text style="font-family: Arial, sans-serif; font-size: 12px; font-weight: normal; fill: black;" lineHeight="1.2" class="djs-label" transform="translate(0, 0)"><tspan x="31.33333396911621" y="13.6">Patient</tspan></text></g><rect x="-6" y="-6" width="112" height="32" style="fill: none;" class="djs-outline"/><rect style="fill: none; stroke-opacity: 0; stroke: white; stroke-width: 15px;" class="djs-hit djs-hit-all" x="0" y="0" width="100" height="20"/></g></g></g></g><g class="djs-group"><g class="djs-element djs-shape" data-element-id="ChoreographyTask_0ijg6u4" transform="matrix(1, 0, 0, 1, 980, 270)" style="display: block;"><g class="djs-visual"><path d="M10,0a10,10,0,0,0,-10,10l0,60a10,10,0,0,0,10,10l80,0a10,10,0,0,0,10,-10l0,-60a10,10,0,0,0,-10,-10z" style="fill: white; fill-opacity: 0.95; stroke: black; stroke-width: 2px;"/><text style="font-family: Arial, sans-serif; font-size: 12px; font-weight: normal; fill: black;" lineHeight="1.2" class="djs-label" transform="translate(0, 20)"><tspan x="29.33333396911621" y="16.4">decline </tspan><tspan x="14.333332061767578" y="30.799999999999997">selection (ds)</tspan></text></g><rect style="fill: none; stroke-opacity: 0; stroke: white; stroke-width: 15px;" class="djs-hit djs-hit-all" x="0" y="0" width="100" height="80"/><rect x="-6" y="-6" width="112" height="92" style="fill: none;" class="djs-outline"/></g><g class="djs-children"><g class="djs-group"><g class="djs-element djs-shape" data-element-id="ParticipantBand_0ljtuul" transform="matrix(1, 0, 0, 1, 980, 330)" style="display: block;"><g class="djs-visual"><path d="M100,0l-100,0l0,10a10,10,0,0,0,10,10l80,0a10,10,0,0,0,10,-10z" style="fill: black; fill-opacity: 0.1725;"/><path d="M0,0l100,0" style="stroke: black; stroke-width: 2px;"/><text style="font-family: Arial, sans-serif; font-size: 12px; font-weight: normal; fill: black;" lineHeight="1.2" class="djs-label" transform="translate(0, 0)"><tspan x="31.33333396911621" y="13.6">Patient</tspan></text></g><rect x="-6" y="-6" width="112" height="32" style="fill: none;" class="djs-outline"/><rect style="fill: none; stroke-opacity: 0; stroke: white; stroke-width: 15px;" class="djs-hit djs-hit-all" x="0" y="0" width="100" height="20"/></g><g class="djs-children"><g class="djs-group"><g class="djs-element djs-shape" data-element-id="Message_18t53s8" transform="matrix(1, 0, 0, 1, 1012.5, 370)" style="display: none;"><g class="djs-visual"><path d="M17.5,-20l0,20" style="stroke: black; stroke-width: 2px; stroke-dasharray: 0px, 4px; stroke-linecap: round;"/><path d="M0,0l0,25l35,0l0,-25zM0,0l17.5,15l17.5,-15" style="stroke: black; stroke-width: 2px; fill: rgb(211, 211, 211); fill-opacity: 0.95;"/></g><rect style="fill: none; stroke-opacity: 0; stroke: white; stroke-width: 15px;" class="djs-hit djs-hit-all" x="0" y="0" width="35" height="25"/><rect x="-6" y="-6" width="47" height="37" style="fill: none;" class="djs-outline"/></g></g></g></g><g class="djs-group"><g class="djs-element djs-shape" data-element-id="ParticipantBand_1pn05zy" transform="matrix(1, 0, 0, 1, 980, 270)" style="display: block;"><g class="djs-visual"><path d="M0,20l100,0" style="stroke: black; stroke-width: 2px;"/><text style="font-family: Arial, sans-serif; font-size: 12px; font-weight: normal; fill: black;" lineHeight="1.2" class="djs-label" transform="translate(0, 0)"><tspan x="23.33333396911621" y="13.6">Radiology</tspan></text></g><rect x="-6" y="-6" width="112" height="32" style="fill: none;" class="djs-outline"/><rect style="fill: none; stroke-opacity: 0; stroke: white; stroke-width: 15px;" class="djs-hit djs-hit-all" x="0" y="0" width="100" height="20"/></g><g class="djs-children"><g class="djs-group"><g class="djs-element djs-shape" data-element-id="Message_05rqhb1" transform="matrix(1, 0, 0, 1, 1012.5, 225)" style="display: none;"><g class="djs-visual"><path d="M17.5,25l0,20" style="stroke: black; stroke-width: 2px; stroke-dasharray: 0px, 4px; stroke-linecap: round;"/><path d="M0,0l0,25l35,0l0,-25zM0,0l17.5,15l17.5,-15" style="stroke: black; stroke-width: 2px; fill: white; fill-opacity: 0.95;"/></g><rect style="fill: none; stroke-opacity: 0; stroke: white; stroke-width: 15px;" class="djs-hit djs-hit-all" x="0" y="0" width="35" height="25"/><rect x="-6" y="-6" width="47" height="37" style="fill: none;" class="djs-outline"/></g></g></g></g></g></g><g class="djs-group"><g class="djs-element djs-shape" data-element-id="Event_0m4ultq_label" transform="matrix(1, 0, 0, 1, 882, 227.5)" style="display: block;"><g class="djs-visual"><text style="font-family: Arial, sans-serif; font-size: 11px; font-weight: normal; fill: black;" lineHeight="1.2" class="djs-label"><tspan x="3.9750003814697266" y="9.899999999999999">conflicting </tspan><tspan x="0" y="23.099999999999998">object views</tspan></text></g><rect style="fill: none; stroke-opacity: 0; stroke: white; stroke-width: 15px;" class="djs-hit djs-hit-all" x="0" y="0" width="60" height="27"/><rect x="-6" y="-6" width="72" height="39" style="fill: none;" class="djs-outline"/></g></g><g class="djs-group"><g class="djs-element djs-shape" data-element-id="Event_1pp5f1d" transform="matrix(1, 0, 0, 1, 1102, 392)" style="display: block;"><g class="djs-visual"><circle cx="18" cy="18" r="18" style="stroke: black; stroke-width: 4px; fill: white; fill-opacity: 0.95;"/></g><rect style="fill: none; stroke-opacity: 0; stroke: white; stroke-width: 15px;" class="djs-hit djs-hit-all" x="0" y="0" width="36" height="36"/><rect x="-6" y="-6" width="48" height="48" style="fill: none;" class="djs-outline"/></g></g><g class="djs-group"><g class="djs-element djs-shape" data-element-id="Event_1pp5f1d_label" transform="matrix(1, 0, 0, 1, 1089, 435)" style="display: block;"><g class="djs-visual"><text style="font-family: Arial, sans-serif; font-size: 11px; font-weight: normal; fill: black;" lineHeight="1.2" class="djs-label"><tspan x="1.125" y="9.899999999999999">appointment </tspan><tspan x="0" y="23.099999999999998">offer declined</tspan></text></g><rect style="fill: none; stroke-opacity: 0; stroke: white; stroke-width: 15px;" class="djs-hit djs-hit-all" x="0" y="0" width="66" height="27"/><rect x="-6" y="-6" width="78" height="39" style="fill: none;" class="djs-outline"/></g></g><g class="djs-group"><g class="djs-element djs-shape" data-element-id="ChoreographyTask_1p6kzet" transform="matrix(1, 0, 0, 1, 980, 370)" style="display: block;"><g class="djs-visual"><path d="M10,0a10,10,0,0,0,-10,10l0,60a10,10,0,0,0,10,10l80,0a10,10,0,0,0,10,-10l0,-60a10,10,0,0,0,-10,-10z" style="fill: white; fill-opacity: 0.95; stroke: black; stroke-width: 2px;"/><text style="font-family: Arial, sans-serif; font-size: 12px; font-weight: normal; fill: black;" lineHeight="1.2" class="djs-label" transform="translate(0, 20)"><tspan x="5.108333587646484" y="23.6">decline offer (do)</tspan></text></g><rect style="fill: none; stroke-opacity: 0; stroke: white; stroke-width: 15px;" class="djs-hit djs-hit-all" x="0" y="0" width="100" height="80"/><rect x="-6" y="-6" width="112" height="92" style="fill: none;" class="djs-outline"/></g><g class="djs-children"><g class="djs-group"><g class="djs-element djs-shape" data-element-id="Participant_0q7unk8_ChoreographyTask_1p6kzet" transform="matrix(1, 0, 0, 1, 980, 370)" style="display: block;"><g class="djs-visual"><path d="M0,20l100,0" style="stroke: black; stroke-width: 2px;"/><text style="font-family: Arial, sans-serif; font-size: 12px; font-weight: normal; fill: black;" lineHeight="1.2" class="djs-label" transform="translate(0, 0)"><tspan x="31.33333396911621" y="13.6">Patient</tspan></text></g><rect x="-6" y="-6" width="112" height="32" style="fill: none;" class="djs-outline"/><rect style="fill: none; stroke-opacity: 0; stroke: white; stroke-width: 15px;" class="djs-hit djs-hit-all" x="0" y="0" width="100" height="20"/></g><g class="djs-children"><g class="djs-group"><g class="djs-element djs-shape" data-element-id="Message_1foaegr" transform="matrix(1, 0, 0, 1, 1012.5, 325)" style="display: none;"><g class="djs-visual"><path d="M17.5,25l0,20" style="stroke: black; stroke-width: 2px; stroke-dasharray: 0px, 4px; stroke-linecap: round;"/><path d="M0,0l0,25l35,0l0,-25zM0,0l17.5,15l17.5,-15" style="stroke: black; stroke-width: 2px; fill: white; fill-opacity: 0.95;"/></g><rect style="fill: none; stroke-opacity: 0; stroke: white; stroke-width: 15px;" class="djs-hit djs-hit-all" x="0" y="0" width="35" height="25"/><rect x="-6" y="-6" width="47" height="37" style="fill: none;" class="djs-outline"/></g></g></g></g><g class="djs-group"><g class="djs-element djs-shape" data-element-id="Participant_1tdksxe_ChoreographyTask_1p6kzet" transform="matrix(1, 0, 0, 1, 980, 430)" style="display: block;"><g class="djs-visual"><path d="M100,0l-100,0l0,10a10,10,0,0,0,10,10l80,0a10,10,0,0,0,10,-10z" style="fill: black; fill-opacity: 0.1725;"/><path d="M0,0l100,0" style="stroke: black; stroke-width: 2px;"/><text style="font-family: Arial, sans-serif; font-size: 12px; font-weight: normal; fill: black;" lineHeight="1.2" class="djs-label" transform="translate(0, 0)"><tspan x="23.33333396911621" y="13.6">Radiology</tspan></text></g><rect x="-6" y="-6" width="112" height="32" style="fill: none;" class="djs-outline"/><rect style="fill: none; stroke-opacity: 0; stroke: white; stroke-width: 15px;" class="djs-hit djs-hit-all" x="0" y="0" width="100" height="20"/></g></g></g></g><g class="djs-group"><g class="djs-element djs-shape" data-element-id="Event_1989ybj" transform="matrix(1, 0, 0, 1, 1102, 292)" style="display: block;"><g class="djs-visual"><circle cx="18" cy="18" r="18" style="stroke: black; stroke-width: 4px; fill: white; fill-opacity: 0.95;"/></g><rect style="fill: none; stroke-opacity: 0; stroke: white; stroke-width: 15px;" class="djs-hit djs-hit-all" x="0" y="0" width="36" height="36"/><rect x="-6" y="-6" width="48" height="48" style="fill: none;" class="djs-outline"/></g></g><g class="djs-group"><g class="djs-element djs-shape" data-element-id="Event_1989ybj_label" transform="matrix(1, 0, 0, 1, 1076, 335)" style="display: block;"><g class="djs-visual"><text style="font-family: Arial, sans-serif; font-size: 11px; font-weight: normal; fill: black;" lineHeight="1.2" class="djs-label"><tspan x="11.933330535888672" y="9.899999999999999">appointment </tspan><tspan x="0" y="23.099999999999998">selection declined</tspan></text></g><rect style="fill: none; stroke-opacity: 0; stroke: white; stroke-width: 15px;" class="djs-hit djs-hit-all" x="0" y="0" width="88" height="27"/><rect x="-6" y="-6" width="100" height="39" style="fill: none;" class="djs-outline"/></g></g><g class="djs-group"><g class="djs-element djs-shape" data-element-id="Gateway_1tqubwk" transform="matrix(1, 0, 0, 1, 695, 285)" style="display: block;"><g class="djs-visual"><polygon points="25,0 50,25 25,50 0,25" style="stroke: black; stroke-width: 2px; fill: white; fill-opacity: 0.95;"/><circle cx="25" cy="25" r="15" style="stroke: black; stroke-width: 1px; fill: none;"/><circle cx="25" cy="25" r="12" style="stroke: black; stroke-width: 1px; fill: none;"/><path d="m 18,22 7.363636363636364,-4.909090909090909 7.363636363636364,4.909090909090909 -2.4545454545454546,9.818181818181818 -9.818181818181818,0 z" style="fill: none; stroke-width: 2px; stroke: black;"/></g><rect style="fill: none; stroke-opacity: 0; stroke: white; stroke-width: 15px;" class="djs-hit djs-hit-all" x="0" y="0" width="50" height="50"/><rect x="-6" y="-6" width="62" height="62" style="fill: none;" class="djs-outline"/></g></g></svg>